<svg xmlns="http://www.w3.org/2000/svg" width="32" height="32">
  <path d="M16 3.5569192c-7.0493516 0-12.7590073 5.7128455-12.7590073 12.7590078 0 5.638418 3.6554556 10.419856 8.7239713 12.105108.63795.120147.871865-.274319.871865-.613496 0-.303026-.01063-1.10578-.01595-2.169031-3.5491289.769794-4.2976573-1.711833-4.2976573-1.711833-.5805348-1.472602-1.4194396-1.866005-1.4194396-1.866005-1.1557534-.791059.089313-.77511.089313-.77511 1.281217.08931 1.9542546 1.314178 1.9542546 1.314178 1.1376783 1.951065 2.9866713 1.387542 3.7160613 1.061124.114831-.825082.443375-1.387542.80807-1.706517-2.833563-.318975-5.8117278-1.41625-5.8117278-6.305076 0-1.392859.4944116-2.530537 1.3131145-3.423667-.1435388-.322165-.5741553-1.619331.1116413-3.3768845 0 0 1.068567-.3423667 3.508727 1.3077985 1.020721-.2838879 2.105236-.424237 3.189752-.4306165 1.084516.00638 2.169031.1467286 3.189752.4306165 2.424211-1.6501652 3.492778-1.3077985 3.492778-1.3077985.685797 1.7575535.25518 3.0547195.12759 3.3768845.813387.89313 1.307798 2.030808 1.307798 3.423667 0 4.901585-2.982418 5.980784-5.821297 6.294443.446566.382771.861233 1.165323.861233 2.360417 0 1.70758-.01595 3.079173-.01595 3.493841 0 .334924.223282.733643.877181.606053 5.104666-1.673556 8.756932-6.458184 8.756932-12.088096C28.759007 9.2697647 23.046162 3.5569192 16 3.5569192"/>
</svg>
